/* XPM */
static char *keyboard_arrow_left[] = {
/* columns rows colors chars-per-pixel */
"24 24 2 1 ",
"  c None",
". c black",
/* pixels */
"                        ",
"                        ",
"                        ",
"                        ",
"                        ",
"                        ",
"             ..         ",
"            ...         ",
"           ...          ",
"          ...           ",
"         ...            ",
"        ...             ",
"         ...            ",
"          ...           ",
"           ...          ",
"            ...         ",
"             ..         ",
"                        ",
"                        ",
"                        ",
"                        ",
"                        ",
"                        ",
"                        "
};
